  Who's Your Daddy 2003 DVDRip Xvid fasamoo LKRG


RIPPER                           : fasamoo
Format                           : AVI
Format/Info                      : Audio Video Interleave
File size                        : 700 MiB
Duration                         : 1h 49mn
Overall bit rate                 : 896 Kbps
Writing application              : VirtualDubMod 1.5.4.1 (build 2178/release)
Writing library                  : VirtualDubMod build 2178/release
Language                         : English
Genre                            : Comedy 

Video
ID                               : 0
Format                           : MPEG-4 Visual
Format profile                   : Advanced Simple@L5
Format settings, BVOP            : Yes
Format settings, QPel            : No
Format settings, GMC             : No warppoints
Format settings, Matrix          : Custom
Codec ID                         : XVID
Codec ID/Hint                    : XviD
Duration                         : 1h 49mn
Bit rate                         : 770 Kbps
Width                            : 512 pixels
Height                           : 272 pixels
Display aspect ratio             : 1.882
Frame rate                       : 23.976 fps
Color space                      : YUV
Chroma subsampling               : 4:2:0
Bit depth                        : 8 bits
Scan type                        : Progressive
Bits/(Pixel*Frame)               : 0.231
Stream size                      : 601 MiB (86%)
Writing library                  : XviD 1.2.1 (UTC 2008-12-04)

Audio
ID                               : 1
Format                           : MPEG Audio
Format version                   : Version 1
Format profile                   : Layer 3
Mode                             : Joint stereo
Codec ID                         : 55
Codec ID/Hint                    : MP3
Duration                         : 1h 49mn
Bit rate mode                    : Variable
Bit rate                         : 114 Kbps
Nominal bit rate                 : 128 Kbps
Channel(s)                       : 2 channels
Sampling rate                    : 48.0 KHz
Stream size                      : 88.9 MiB (13%)
Alignment                        : Aligned on interleaves
Interleave, duration             : 24 ms (0.58 video frame)
Interleave, preload duration     : 526 ms
Writing library                  : LAME3.98r
Encoding settings                : -m j -V 4 -q 2 -lowpass 17 --abr 128

         PLOT

Nice, nerdy Xenia, Ohio senior high school reporter Chris Hughes (18), paperboy and cool quarterback Hudson Reed's cool pack's punching-ball, can't even get girls to attend a free booze-party. When Chris's biological parents, publisher Peter Mack and nude model Honey, die, he inherits a horny teenager's wet dream: Heaven magazine porn empire, a huge Hollywood 'play heaven' villa and $87,000,000 cash, which instantly makes him Mr. Popularity. However his uncle Duncan 'Duncay' Mack plots with lawyer Michael Hunt, the trust administrator, to cover up their embezzlement and steal the firm while the naive heir parties and barely attends school.


                                 IMBD
                     
                 http://www.imdb.com/title/tt0287138/
 
http://leetleech.org/images/60977606196113486264.png 
http://leetleech.org/images/20000212305038878574.png 
http://leetleech.org/images/25846272644637307930.png 
http://leetleech.org/images/15392050956107251640.png 
http://leetleech.org/images/43623243460804353506.png